<?xml version="1.0" encoding="UTF-8" standalone="no"?>
<svg width="1564px" height="484px" viewBox="0 0 1564 484" version="1.1" xmlns="http://www.w3.org/2000/svg" xmlns:xlink="http://www.w3.org/1999/xlink">
    <!-- Generator: Sketch 39.1 (31720) - http://www.bohemiancoding.com/sketch -->
    <title>graph</title>
    <desc>Created with Sketch.</desc>
    <defs>
        <rect id="path-1" x="0" y="0" width="1564" height="484"></rect>
    </defs>
    <g id="Page-1" stroke="none" stroke-width="1" fill="none" fill-rule="evenodd">
        <g id="Home-V2" transform="translate(-17.000000, -2576.000000)">
            <g id="Group-9" transform="translate(17.000000, 2367.000000)">
                <g id="graph" transform="translate(0.000000, 209.000000)">
                    <mask id="mask-2" fill="white">
                        <use xlink:href="#path-1"></use>
                    </mask>
                    <g id="Rectangle-11"></g>
                    <g id="Path-26" mask="url(#mask-2)">
                        <g transform="translate(-204.000000, -1.000000)" id="Page-1">
                            <g>
                                <polygon id="Path-26" stroke-opacity="0.107761549" stroke="#949494" stroke-width="2" fill-opacity="0.0457710598" fill="#B3B3B3" points="0.5976561 484.621094 272.859375 406.066406 580.042969 347.414062 689.5 366.996094 749.804687 286.261719 825.667969 286.261719 904.736044 190.738281 990.411711 210.789062 1057.2525 145.996094 1167.18644 137.84375 1231.31553 87.9140625 1341.72914 84.2070312 1403.87379 30.796875 1786.71875 0.7734375 1786.71875 484.621094"></polygon>
                                <circle id="Oval-3" stroke="#FFFFFF" stroke-width="4" fill="#E9E9E9" cx="579" cy="346" r="6"></circle>
                                <rect id="Rectangle-2" fill="#FBFBFB" transform="translate(965.000000, 491.000000) scale(1, -1) translate(-965.000000, -491.000000) " x="155" y="473" width="1620" height="36"></rect>
                                <circle id="Oval-4" stroke="#FFFFFF" stroke-width="4" fill="#E9E9E9" cx="688" cy="365" r="6"></circle>
                                <circle id="Oval-10" stroke="#FFFFFF" stroke-width="4" fill="#E9E9E9" cx="749" cy="286" r="6"></circle>
                                <circle id="Oval-11" stroke="#FFFFFF" stroke-width="4" fill="#E9E9E9" cx="827" cy="286" r="6"></circle>
                                <circle id="Oval-12" stroke="#FFFFFF" stroke-width="4" fill="#E9E9E9" cx="989" cy="210" r="6"></circle>
                                <circle id="Oval-13" stroke="#FFFFFF" stroke-width="4" fill="#E9E9E9" cx="1170" cy="136" r="6"></circle>
                                <circle id="Oval-5" stroke="#FFFFFF" stroke-width="4" fill="#E9E9E9" cx="905" cy="190" r="6"></circle>
                                <circle id="Oval-6" stroke="#FFFFFF" stroke-width="4" fill="#E9E9E9" cx="1057" cy="147" r="6"></circle>
                                <circle id="Oval-7" stroke="#FFFFFF" stroke-width="4" fill="#E9E9E9" cx="1232" cy="88" r="6"></circle>
                                <circle id="Oval-8" stroke="#FFFFFF" stroke-width="4" fill="#E9E9E9" cx="1342" cy="83" r="6"></circle>
                            </g>
                        </g>
                    </g>
                </g>
            </g>
        </g>
    </g>
</svg>